<?xml version="1.0" encoding="UTF-8" standalone="no"?>
<!-- Created with Inkscape (http://www.inkscape.org/) -->

<svg
   xmlns:dc="http://purl.org/dc/elements/1.1/"
   xmlns:cc="http://creativecommons.org/ns#"
   xmlns:rdf="http://www.w3.org/1999/02/22-rdf-syntax-ns#"
   xmlns:svg="http://www.w3.org/2000/svg"
   xmlns="http://www.w3.org/2000/svg"
   xmlns:sodipodi="http://sodipodi.sourceforge.net/DTD/sodipodi-0.dtd"
   xmlns:inkscape="http://www.inkscape.org/namespaces/inkscape"
   width="75.250809mm"
   height="75.238113mm"
   viewBox="0 0 266.63672 266.59174"
   id="svg2"
   version="1.1"
   inkscape:version="0.91 r13725"
   sodipodi:docname="fsa-logo-master-square.svg">
  <defs
     id="defs4" />
  <sodipodi:namedview
     id="base"
     pagecolor="#ffffff"
     bordercolor="#666666"
     borderopacity="1.0"
     inkscape:pageopacity="0.0"
     inkscape:pageshadow="2"
     inkscape:zoom="0.98994949"
     inkscape:cx="235.49705"
     inkscape:cy="-95.591973"
     inkscape:document-units="px"
     inkscape:current-layer="layer1"
     showgrid="false"
     inkscape:window-width="1920"
     inkscape:window-height="1163"
     inkscape:window-x="0"
     inkscape:window-y="0"
     inkscape:window-maximized="1"
     fit-margin-top="0"
     fit-margin-left="0"
     fit-margin-right="0"
     fit-margin-bottom="0" />
  <metadata
     id="metadata7">
    <rdf:RDF>
      <cc:Work
         rdf:about="">
        <dc:format>image/svg+xml</dc:format>
        <dc:type
           rdf:resource="http://purl.org/dc/dcmitype/StillImage" />
        <dc:title></dc:title>
      </cc:Work>
    </rdf:RDF>
  </metadata>
  <g
     inkscape:label="Layer 1"
     inkscape:groupmode="layer"
     id="layer1"
     transform="translate(-24.362102,-48.960178)">
    <g
       id="g3559">
      <path
         d="M 87.11259,262.991 86.891438,129.43984 c 0,-5.33814 3.141617,-9.67649 7.048798,-9.70505 3.572791,0 6.508744,3.60135 7.018794,8.28716 l 0.14179,108.16416 c 0.0285,5.35895 3.19485,9.69149 7.07009,9.69149 3.76733,0.006 6.81458,-4.00154 7.05654,-9.03916 l 0,-0.1326 c 0,-0.17566 0.0189,-0.35907 0.0189,-0.54828 l -0.16067,-107.2752 c 0.16792,-5.11166 3.24566,-9.1795 7.01299,-9.18918 3.22098,0.01 5.94885,2.98289 6.80297,7.04734 l -0.0508,-22.33393 -0.091,0 C 128.69934,83.393753 141.85039,58.985728 160.35312,48.989848 126.68284,48.280904 92.755113,60.274894 66.296374,85.189585 12.675662,135.67226 10.148286,220.02749 60.614121,273.66147 73.615539,287.47984 88.902615,297.88608 105.354,304.8802 95.931088,294.23199 90.606018,281.46857 87.849602,269.87139 87.532149,268.5198 87.11259,264.55987 87.11259,262.991"
         style="fill:#62b92c;fill-opacity:1;fill-rule:nonzero;stroke:none"
         id="path3405"
         inkscape:connector-curvature="0" />
      <path
         d="m 227.47833,102.50284 0.22648,133.54148 c 0.01,5.35895 -3.16243,9.68762 -7.04493,9.6915 -3.56505,0.006 -6.486,-3.59506 -6.99992,-8.27361 l -0.17034,-108.16223 c -0.0189,-5.36668 -3.19437,-9.67842 -7.08848,-9.71036 -3.73926,0.0319 -6.79571,4.04703 -7.03186,9.08852 l 0,0.0924 c 0,0.18728 -0.0189,0.37649 0,0.54054 l 0.15098,107.30956 c -0.18873,5.1136 -3.27034,9.16451 -7.03186,9.17757 -3.2384,0.01 -5.94885,-2.98676 -6.80877,-7.04154 l 0.14517,22.09246 0.0416,0.22309 c 0.0155,20.3397 -12.28483,43.89312 -29.88602,54.46922 33.36057,0.41617 66.88519,-11.55894 93.11712,-36.23748 53.58703,-50.47881 56.10681,-134.84565 5.64833,-188.464623 -13.73659,-14.56071 -29.98619,-25.356511 -47.44704,-32.343368 10.47254,10.80548 17.7633,26.079006 19.46671,39.715909 0.44424,1.277553 0.71281,2.723992 0.71281,4.290932"
         style="fill:#bde19a;fill-opacity:1;fill-rule:nonzero;stroke:none"
         id="path3407"
         inkscape:connector-curvature="0" />
      <path
         d="m 160.35312,48.989848 c -18.50273,9.99588 -31.65378,34.403905 -31.63104,55.429802 l 0.0532,0.0982 0.12631,22.22263 0,0 0.17615,109.41704 c 0.0189,5.34975 3.19823,9.68811 7.08848,9.66923 2.77867,0 5.15521,-2.212 6.29484,-5.41604 0.0508,-0.0378 0.0624,-0.0755 0.0624,-0.12292 0.14179,-0.43456 0.28745,-0.90735 0.38181,-1.39853 0,-0.1326 0.0624,-0.24584 0.0891,-0.37795 0.0658,-0.41617 0.10017,-0.84154 0.14711,-1.2761 0.015,-0.35907 0.0755,-0.69926 0.0663,-1.04914 l -0.0755,-105.31145 0.0242,-2.11135 c 0.16114,-3.69183 1.87181,-6.80925 4.20044,-8.22521 0.0721,-0.03 0.11372,-0.0847 0.15146,-0.11517 0.0886,-0.03 0.12631,-0.0455 0.20422,-0.0871 0.76895,-0.43456 1.65404,-0.66684 2.55559,-0.68039 3.32696,0 6.11531,3.17985 6.89007,7.44029 l 0.0755,0.54635 c 0.0663,0.55215 0.004,1.17593 0.0474,1.74841 l 0.17034,108.4158 c 0.57635,4.52321 3.47213,8.00164 6.95249,7.97309 0.89574,0.006 1.75228,-0.25503 2.54591,-0.66152 0.0382,0 0.0852,0 0.10792,-0.01 0.0721,-0.0658 0.10985,-0.13211 0.20421,-0.18873 2.43268,-1.50838 4.11721,-4.89244 4.11721,-8.78608 l -0.0436,-105.97538 0.0624,-1.4537 c 0,-0.14324 0.0358,-0.30971 0.0547,-0.45344 0.015,-0.42536 0.0813,-0.8638 0.15679,-1.2611 0.0155,-0.13017 0.0571,-0.24922 0.0721,-0.38181 0.0982,-0.47812 0.22696,-0.9751 0.376,-1.43289 l 0.0494,-0.10017 c 1.12851,-3.24373 3.52924,-5.47606 6.32098,-5.45718 3.90573,-0.0189 7.07542,4.33448 7.07542,9.68229 l 0.17615,109.4664 c 0.85992,4.0451 3.57037,7.0188 6.80877,7.03186 3.76152,-0.0131 6.84313,-4.06397 7.03186,-9.17757 l -0.15098,-107.29213 c -0.0189,-0.18148 0,-0.37069 0,-0.55797 l 0,-0.0924 c 0.23615,-5.05843 3.2926,-9.05658 7.03186,-9.08852 3.89411,0.0319 7.06961,4.34368 7.08848,9.71036 l 0.17034,108.16223 c 0.51392,4.67855 3.43487,8.28909 6.99992,8.27361 3.8825,-0.004 7.04493,-4.33255 7.04493,-9.6915 l -0.22648,-133.5531 c 0,-1.55532 -0.11953,-3.152743 -0.32132,-4.653867 -2.05134,-13.594802 -9.38566,-28.545552 -19.8582,-39.341354 -15.0185,-6.001592 -30.95354,-9.207571 -46.94569,-9.506151"
         style="fill:#00674c;fill-opacity:1;fill-rule:nonzero;stroke:none"
         id="path3409"
         inkscape:connector-curvature="0" />
      <path
         d="m 155.9804,315.54147 c 18.49693,-9.99007 29.93538,-33.58124 29.91651,-54.61101 l -0.0532,-0.10017 -0.12631,-22.21538 0,0 -0.1665,-109.42091 c -0.0286,-5.34781 -3.20985,-9.69342 -7.09235,-9.66681 -2.78448,0 -5.15715,2.20184 -6.30065,5.41363 -0.0508,0.0358 -0.0566,0.0774 -0.0566,0.12098 -0.1476,0.43843 -0.27777,0.90929 -0.38182,1.39515 0,0.13985 -0.0527,0.25309 -0.091,0.38568 -0.0697,0.41182 -0.0944,0.83331 -0.14179,1.28142 -0.0189,0.35375 -0.0847,0.69395 -0.0658,1.04915 l 0.0852,105.30225 -0.0382,2.11716 c -0.15679,3.68602 -1.88051,6.80877 -4.19608,8.21698 -0.0813,0.0344 -0.12291,0.091 -0.16114,0.12872 -0.0886,0.0189 -0.13211,0.0377 -0.2018,0.0852 -0.77137,0.42537 -1.65066,0.66152 -2.55414,0.6804 -3.32115,0 -6.12257,-3.18517 -6.88813,-7.44804 l -0.0755,-0.5386 c -0.0624,-0.56716 -0.0116,-1.18125 -0.0397,-1.74841 L 157.168,127.54967 c -0.57103,-4.53483 -3.47262,-8.00357 -6.94718,-7.97744 -0.90154,-0.005 -1.75421,0.25164 -2.54784,0.66926 -0.0416,0 -0.0799,0 -0.10211,0.01 -0.0813,0.0605 -0.12872,0.1263 -0.20809,0.17953 -2.4346,1.51806 -4.12301,4.89003 -4.12301,8.78414 l 0.0436,105.98459 -0.0624,1.44982 c 0,0.14179 -0.0319,0.31165 -0.0508,0.45344 -0.0136,0.43504 -0.0755,0.86041 -0.16066,1.25723 -0.006,0.13259 -0.0416,0.25502 -0.0721,0.38762 -0.0832,0.4723 -0.22115,0.96784 -0.37794,1.42708 l -0.0416,0.0944 c -1.1435,3.25146 -3.53504,5.48234 -6.32291,5.47266 -3.90718,0.01 -7.07009,-4.33835 -7.07009,-9.6881 L 128.9321,126.57986 c -0.84686,-4.04171 -3.56311,-7.01299 -6.79764,-7.02847 -3.76539,0.0155 -6.84652,4.06832 -7.02605,9.17757 l 0.14517,107.29649 c 0.0247,0.18341 0,0.36875 0,0.55215 l 0,0.0905 c -0.24002,5.06617 -3.30228,9.06772 -7.02605,9.08659 -3.88831,-0.0189 -7.07929,-4.34174 -7.09235,-9.70117 L 100.96871,127.8879 c -0.5236,-4.66887 -3.444069,-8.28909 -6.997987,-8.26634 -3.884437,0 -7.062348,4.33061 -7.062348,9.68617 l 0.232766,133.56035 c 0,1.55 0.122432,3.14743 0.336325,4.65388 2.035857,13.58754 7.407868,26.56437 17.876534,37.35824 15.0185,6.00159 34.63668,10.3685 50.6264,10.66127"
         style="fill:#ffffff;fill-opacity:1;fill-rule:nonzero;stroke:none"
         id="path3411"
         inkscape:connector-curvature="0" />
    </g>
  </g>
</svg>
