<?xml version="1.0" encoding="UTF-8" standalone="no"?>
<!-- Created with Inkscape (http://www.inkscape.org/) -->

<svg
   xmlns:dc="http://purl.org/dc/elements/1.1/"
   xmlns:cc="http://creativecommons.org/ns#"
   xmlns:rdf="http://www.w3.org/1999/02/22-rdf-syntax-ns#"
   xmlns:svg="http://www.w3.org/2000/svg"
   xmlns="http://www.w3.org/2000/svg"
   xmlns:sodipodi="http://sodipodi.sourceforge.net/DTD/sodipodi-0.dtd"
   xmlns:inkscape="http://www.inkscape.org/namespaces/inkscape"
   width="190.25526mm"
   height="94.84095mm"
   viewBox="0 0 674.13283 336.05061"
   id="svg2"
   version="1.1"
   inkscape:version="0.91 r13725"
   sodipodi:docname="fsa-logo-master.svg">
  <defs
     id="defs4" />
  <sodipodi:namedview
     id="base"
     pagecolor="#ffffff"
     bordercolor="#666666"
     borderopacity="1.0"
     inkscape:pageopacity="0.0"
     inkscape:pageshadow="2"
     inkscape:zoom="0.98994949"
     inkscape:cx="235.49705"
     inkscape:cy="-26.133095"
     inkscape:document-units="px"
     inkscape:current-layer="layer1"
     showgrid="false"
     inkscape:window-width="1920"
     inkscape:window-height="1163"
     inkscape:window-x="0"
     inkscape:window-y="0"
     inkscape:window-maximized="1"
     fit-margin-top="0"
     fit-margin-left="0"
     fit-margin-right="0"
     fit-margin-bottom="0" />
  <metadata
     id="metadata7">
    <rdf:RDF>
      <cc:Work
         rdf:about="">
        <dc:format>image/svg+xml</dc:format>
        <dc:type
           rdf:resource="http://purl.org/dc/dcmitype/StillImage" />
        <dc:title></dc:title>
      </cc:Work>
    </rdf:RDF>
  </metadata>
  <g
     inkscape:label="Layer 1"
     inkscape:groupmode="layer"
     id="layer1"
     transform="translate(-24.362102,-48.960179)">
    <g
       transform="matrix(4.8392135,0,0,-4.8392135,24.363476,385.0108)"
       inkscape:label="ink_ext_XXXXXX"
       id="g3363">
      <g
         transform="scale(0.1,0.1)"
         id="g3365">
        <path
           inkscape:connector-curvature="0"
           id="path3367"
           style="fill:#00674c;fill-opacity:1;fill-rule:nonzero;stroke:none"
           d="m 624.375,507.027 c -2.07,0.008 -3.691,1.707 -3.711,3.758 l 0,132.617 c 0.02,2.059 1.641,3.743 3.711,3.758 l 69.719,0 c 2.144,0 3.926,-1.672 3.926,-3.758 l 0,-10.281 c -0.11,-2.246 -1.926,-3.691 -3.926,-3.754 l -50.891,0 0,-39.156 40.813,0 c 2.089,-0.02 3.711,-1.695 3.726,-3.75 l 0,-10.082 c -0.015,-2.059 -1.668,-3.738 -3.726,-3.762 l -40.813,0 0,-61.832 c -0.019,-2.058 -1.648,-3.75 -3.723,-3.758 l -15.105,0 0,0" />
        <path
           inkscape:connector-curvature="0"
           id="path3369"
           style="fill:#00674c;fill-opacity:1;fill-rule:nonzero;stroke:none"
           d="m 727.313,528.988 c 4.082,-5.117 11.039,-8.07 19.589,-8.07 l 0,0 c 18.215,0.133 26.899,11.879 27.121,38.391 l 0,0 c -0.222,26.507 -8.886,38.039 -27.335,38.187 l 0,0 c -18.434,-0.148 -26.883,-11.457 -27.118,-38.598 l 0,0 c 0.02,-15.117 2.176,-23.035 7.735,-29.898 l 0,0 m 19.383,85.684 c 15.546,0.004 28.167,-5.188 36.82,-14.789 l 0,0 c 8.633,-9.598 13.25,-23.465 13.25,-40.586 l 0,0 c 0,-17.032 -4.668,-30.973 -13.25,-40.7 l 0,0 c -8.574,-9.707 -21.008,-15.074 -36.125,-15.074 l -0.07,0 c -15.458,-0.015 -28.172,5.348 -36.93,15.035 l 0,0 c -8.781,9.696 -13.535,23.602 -13.535,40.535 l 0,0 c 0,17.024 4.656,30.938 13.308,40.598 l 0,0 c 8.633,9.688 21.199,14.985 36.532,14.981 l 0,0" />
        <path
           inkscape:connector-curvature="0"
           id="path3371"
           style="fill:#00674c;fill-opacity:1;fill-rule:nonzero;stroke:none"
           d="m 837.141,528.988 c 4.089,-5.117 11.062,-8.07 19.597,-8.07 l 0,0 c 18.223,0.133 26.907,11.879 27.11,38.391 l 0,0 c -0.203,26.507 -8.86,38.039 -27.305,38.187 l 0,0 c -18.469,-0.148 -26.902,-11.457 -27.129,-38.598 l 0,0 c 0.012,-15.117 2.18,-23.035 7.727,-29.898 l 0,0 m 19.402,85.684 c 15.52,0.004 28.145,-5.188 36.785,-14.789 l 0,0 c 8.652,-9.598 13.266,-23.465 13.266,-40.586 l 0,0 c 0,-17.032 -4.653,-30.973 -13.242,-40.7 l 0,0 c -8.579,-9.707 -21.028,-15.074 -36.145,-15.074 l -0.078,0 0,0 c -15.418,-0.015 -28.152,5.348 -36.914,15.035 l 0,0 c -8.762,9.696 -13.535,23.602 -13.535,40.535 l 0,0 c 0,17.024 4.648,30.938 13.3,40.598 l 0,0 c 8.614,9.688 21.211,14.985 36.563,14.981 l 0,0" />
        <path
           inkscape:connector-curvature="0"
           id="path3373"
           style="fill:#00674c;fill-opacity:1;fill-rule:nonzero;stroke:none"
           d="m 971.199,597.289 c -9.961,-0.008 -17.879,-3.328 -23.465,-9.965 l 0,0 c -5.957,-6.918 -8.046,-13.922 -8.078,-28.636 l 0,0 c 0.129,-22.93 11.582,-35.801 31.34,-35.918 l 0,0 c 3.887,0 7.793,0.593 11.035,1.582 l 0,0 c 6.602,2.382 7.84,3.937 8.035,9.461 l 0,51.808 c -0.093,4.746 -0.933,6.297 -3.718,8.192 l 0,0 c -3.68,2.253 -9.075,3.476 -15.078,3.476 l -0.071,0 0,0 z m -40.75,-77.16 c -8.711,9.457 -13.554,22.961 -13.554,39.18 l 0,0 c 0.07,32.293 20.8,55.312 50.085,55.375 l 0,0 c 7.297,-0.032 14.895,-1.641 19.602,-4.805 l 0,0 1.902,-1.367 c 1.047,-0.586 1.164,-0.664 1.582,-0.688 l 0,41.563 c 0.051,2.488 2.004,4.515 4.524,4.562 l 12.69,0 c 2.67,-0.004 4.51,-2.219 4.52,-4.562 l 0,-137.782 c -0.03,-2.5 -2.01,-4.539 -4.52,-4.578 l -10.471,0 c -2.551,0 -4.536,2.055 -4.707,4.633 l 0,0 c -0.676,-0.101 -1.309,-0.328 -2.153,-0.797 l 0,0 -1.758,-0.789 c -6.277,-3.215 -13.582,-4.699 -21.421,-4.699 l 0,0 c -15.04,-0.008 -27.61,5.305 -36.321,14.754 l 0,0" />
        <path
           inkscape:connector-curvature="0"
           id="path3375"
           style="fill:#00674c;fill-opacity:1;fill-rule:nonzero;stroke:none"
           d="m 617.52,375.684 c 1.191,0.035 2.293,-0.454 4.089,-1.704 l 0,0 c 6.274,-4.503 17.422,-7.785 26.34,-7.757 l 0,0 c 14.168,0.129 22.403,7.566 22.489,19.484 l 0,0 c 0,3.32 -0.583,6.418 -1.661,9.02 l 0,0 c -1.714,3.628 -3.562,5.578 -10.418,10.523 l 0,0 -23.73,16.855 c -4.316,2.926 -7.852,5.879 -10.352,8.856 l 0,0 c -5.351,5.898 -8.425,14.648 -8.449,23.828 l 0,0 c -0.015,11.453 4.043,20.887 11.469,27.344 l 0,0 c 7.41,6.476 18.074,9.933 31.133,9.933 l 0,0 c 10.078,-0.011 21.289,-2.07 29.238,-5.683 l 0,0 c 2.254,-0.684 3.641,-2.688 3.277,-5.274 l 0,-11.718 c -0.007,-1.215 -0.047,-2.168 -0.547,-3.129 l 0,0 c -0.543,-1.028 -1.804,-1.512 -2.761,-1.453 l 0,0 c -1.348,-0.047 -2.461,0.554 -4.074,1.914 l 0,0 c -7.032,4.98 -15.165,7.75 -24.122,7.761 l 0,0 c -13.418,-0.136 -20.996,-6.773 -21.082,-17.636 l 0,0 c 0.086,-6.735 2.364,-10.727 10.442,-16.453 l 0,0 24.773,-17.059 c 15.11,-10.332 21.477,-20.488 21.414,-34.746 l 0,0 c 0,-12.102 -4.527,-22.192 -12.586,-29.152 l 0,0 c -8.078,-6.973 -19.589,-10.801 -33.437,-10.801 l 0,0 c -10.281,0.015 -22.434,1.847 -30.156,5.027 l 0,0 c -3.243,1.02 -5.188,2.941 -5.008,5.723 l 0,12.324 c 0.027,1.973 1.472,3.965 3.719,3.973 l 0,0" />
        <path
           inkscape:connector-curvature="0"
           id="path3377"
           style="fill:#00674c;fill-opacity:1;fill-rule:nonzero;stroke:none"
           d="m 701.094,438.902 c -2.52,0.051 -4.485,2.078 -4.512,4.575 l 0,8.222 c 0.027,2.5 1.992,4.547 4.512,4.59 l 9.59,0 0,22.766 c 0.019,2.367 1.855,4.578 4.531,4.578 l 12.683,0 c 2.5,-0.043 4.473,-2.074 4.524,-4.578 l 0,-22.766 27.512,0 c 2.507,-0.043 4.48,-2.09 4.539,-4.59 l 0,-8.222 c 0,-2.664 -2.176,-4.567 -4.539,-4.575 l 0,0 -27.512,0.008 0,-58.144 c 0.281,-10.946 3.523,-14.493 13.008,-14.746 l 0,0 c 3.398,-0.008 6.797,0.789 9.55,2.277 l 0,0 2.383,1.308 c 1.114,0.45 2.051,0.739 2.969,0.739 l 0,0 c 1.199,0.019 2.383,-0.516 3.086,-1.442 l 0,0 c 0.742,-0.918 1.055,-2.089 1.055,-3.355 l 0,-7.387 c 0.183,-2.18 -0.938,-4.297 -3.028,-5.023 l 0,0 c -5.429,-2.86 -14.172,-4.485 -21.648,-4.5 l 0,0 c -9.043,-0.008 -16.359,2.508 -21.43,7.324 l 0,0 c -5.039,4.824 -7.691,11.867 -7.683,20.492 l 0,62.449 -9.59,0" />
        <path
           inkscape:connector-curvature="0"
           id="path3379"
           style="fill:#00674c;fill-opacity:1;fill-rule:nonzero;stroke:none"
           d="m 814.629,397.848 0,0 c -16.309,-5.754 -19.375,-9.055 -19.531,-18.731 l 0,0 c 0.144,-8.84 5.058,-12.883 17.043,-13.097 l 0,0 c 5.828,0 11.714,1.199 16.265,3.136 l 0,0 c 4.36,2.367 4.809,2.867 5.012,8.942 l 0,26.457 -18.762,-6.7 m -42.293,-19.55 c -0.027,9.726 4.707,18.281 13.133,23.648 l 0,0 c 7.055,4.645 17.59,9.379 28.383,12.926 l 0,0 14.656,4.922 c 4.356,1.801 4.727,2.254 4.883,4.965 l 0,4.527 c -0.176,8.012 -4.141,10.996 -15.84,11.246 l 0,0 c -10.398,0.024 -22.336,-3.055 -29.387,-7.551 l 0,0 c -1.746,-1.25 -3.023,-1.738 -4.468,-1.695 l 0,0 c -1.172,-0.008 -2.336,0.359 -3.149,1.199 l 0,0 c -0.828,0.836 -1.179,1.992 -1.16,3.168 l 0,8.227 c -0.098,2.89 0.566,5.148 2.688,6.41 l 0,0 c 6.699,4.23 24.683,7.578 38.093,7.633 l 0,0 c 11.282,-0.004 20.047,-2.391 26.094,-7.387 l 0,0 c 6.024,-4.992 9.07,-12.531 9.055,-22.07 l 0,-73.614 c -0.039,-2.492 -1.992,-4.535 -4.524,-4.582 l -10.254,0 c -1.535,0 -2.949,0.379 -3.925,1.442 l 0,0 c -0.848,0.957 -1.153,2.16 -1.211,3.472 l 0,0 c -1.321,-0.062 -2.032,-0.289 -3.938,-1.066 l 0,0 -3.609,-1.645 c -5.195,-2.402 -13.711,-3.828 -20.395,-3.843 l 0,0 c -20.476,0.031 -35.105,12.078 -35.125,29.668 l 0,0" />
        <path
           inkscape:connector-curvature="0"
           id="path3381"
           style="fill:#00674c;fill-opacity:1;fill-rule:nonzero;stroke:none"
           d="m 889.512,451.156 c 1.551,0 2.414,0.285 5.312,1.535 l 0,0 c 2.617,1.024 3.953,1.629 4.856,1.856 l 0,0 c 6.226,2.32 12.468,3.383 19.07,3.383 l 0,0 c 11.16,0.011 20.461,-3.453 26.953,-9.84 l 0,0 c 6.453,-6.379 10.02,-15.606 10.012,-26.817 l 0,-66.402 c -0.039,-2.504 -2.004,-4.547 -4.524,-4.582 l -12.898,0 0,0 c -2.531,0.035 -4.484,2.078 -4.523,4.582 l 0,63.524 c -0.235,15.566 -6.473,21.914 -21.661,22.156 l 0,0 c -4.902,0 -9.765,-0.805 -13.769,-2.363 l 0,0 c -5.559,-2.313 -6.77,-4.161 -6.914,-9.094 l 0,-74.223 c -0.047,-2.504 -1.992,-4.547 -4.512,-4.582 l -12.703,0 c -2.523,0.035 -4.477,2.078 -4.516,4.582 l 0,96.828 c 0.039,2.496 1.993,4.555 4.516,4.59 l 9.859,0 c 1.731,-0.023 3.098,-0.133 4.2,-1.226 l 0,0 c 1.039,-1.114 1.117,-2.442 1.132,-3.907 l 0.11,0" />
        <path
           inkscape:connector-curvature="0"
           id="path3383"
           style="fill:#00674c;fill-opacity:1;fill-rule:nonzero;stroke:none"
           d="m 1021.94,440.551 c -9.96,-0.02 -17.91,-3.328 -23.471,-9.981 l 0,0 c -5.942,-6.914 -8.059,-13.914 -8.098,-28.632 l 0,0 C 990.52,379 1001.96,366.133 1021.74,366.02 l 0,0 c 3.87,0 7.77,0.593 11.01,1.582 l 0,0 c 6.63,2.382 7.86,3.937 8.05,9.464 l 0,51.817 c -0.1,4.726 -0.94,6.281 -3.74,8.187 l 0,0 c -3.65,2.262 -9.05,3.481 -15.06,3.481 l -0.06,0 0,0 z m -40.78,-77.172 c -8.687,9.457 -13.523,22.953 -13.523,39.18 l 0,0 c 0.039,32.3 20.793,55.316 50.073,55.371 l 0,0 c 7.28,-0.024 14.89,-1.637 19.59,-4.793 l 0,0 1.92,-1.364 c 1.03,-0.597 1.15,-0.664 1.58,-0.683 l 0,41.539 c 0.03,2.488 1.99,4.535 4.52,4.582 l 12.68,0 c 2.66,0 4.53,-2.227 4.53,-4.582 l 0,-137.758 c -0.04,-2.512 -2.02,-4.547 -4.53,-4.594 l -10.48,0 c -2.55,0.012 -4.53,2.051 -4.71,4.641 l 0,0 c -0.66,-0.109 -1.31,-0.34 -2.12,-0.801 l 0,0 -1.73,-0.797 c -6.31,-3.207 -13.62,-4.683 -21.45,-4.683 l 0,0 c -15.06,-0.008 -27.608,5.285 -36.35,14.742 l 0,0" />
        <path
           inkscape:connector-curvature="0"
           id="path3385"
           style="fill:#00674c;fill-opacity:1;fill-rule:nonzero;stroke:none"
           d="m 1115.12,397.848 0,0 c -16.31,-5.754 -19.38,-9.055 -19.54,-18.731 l 0,0 c 0.14,-8.84 5.06,-12.883 17.05,-13.097 l 0,0 c 5.84,0 11.71,1.199 16.27,3.136 l 0,0 c 4.35,2.367 4.8,2.867 5,8.942 l 0,26.457 -18.75,-6.7 m -42.32,-19.55 c -0.02,9.726 4.74,18.281 13.17,23.648 l 0,0 c 7.03,4.645 17.58,9.379 28.37,12.926 l 0,0 14.66,4.922 c 4.35,1.801 4.72,2.254 4.87,4.965 l 0,4.527 c -0.18,8.012 -4.15,10.996 -15.83,11.246 l 0,0 c -10.39,0.024 -22.35,-3.055 -29.4,-7.551 l 0,0 c -1.77,-1.25 -3.02,-1.738 -4.45,-1.695 l 0,0 c -1.18,-0.008 -2.36,0.359 -3.18,1.199 l 0,0 c -0.82,0.836 -1.17,1.992 -1.17,3.168 l 0,8.227 c -0.07,2.89 0.6,5.152 2.73,6.41 l 0,0 c 6.67,4.23 24.67,7.578 38.08,7.633 l 0,0 c 11.29,-0.004 20.05,-2.391 26.09,-7.387 l 0,0 c 6.03,-4.992 9.08,-12.531 9.06,-22.07 l 0,-73.614 c -0.04,-2.5 -2.02,-4.535 -4.52,-4.582 l -10.27,0 c -1.52,0 -2.94,0.379 -3.9,1.442 l 0,0 c -0.87,0.957 -1.16,2.16 -1.21,3.472 l 0,0 c -1.32,-0.062 -2.04,-0.289 -3.96,-1.066 l 0,0 -3.6,-1.645 c -5.2,-2.402 -13.7,-3.828 -20.38,-3.843 l 0,0 c -20.5,0.031 -35.12,12.078 -35.16,29.668 l 0,0" />
        <path
           inkscape:connector-curvature="0"
           id="path3387"
           style="fill:#00674c;fill-opacity:1;fill-rule:nonzero;stroke:none"
           d="m 1173.69,350.289 c -2.53,0.035 -4.49,2.078 -4.53,4.582 l 0,96.828 c 0.04,2.512 2,4.547 4.53,4.59 l 10.27,0 c 1.4,0 2.71,-0.297 3.67,-1.226 l 0,0 c 0.96,-0.938 1.26,-2.235 1.26,-3.547 l 0,-1.981 c 1.07,0.067 1.76,0.293 3.67,1.242 l 0,0 c 8.14,4.176 13.63,5.524 22.06,5.512 l 0,0 c 3.58,-0.023 6,-0.254 7.84,-1.351 l 0,0 c 1.92,-1.153 2.55,-3.293 2.49,-5.493 l 0,-9.265 c 0,-2.45 -1.52,-4.981 -4.3,-4.989 l 0,0 c -0.39,0.028 -1.04,-0.035 -1.83,0.278 l 0,0 -0.91,0.179 c -3.69,0.793 -9.32,1.415 -13.4,1.407 l 0,0 c -11.79,-0.344 -14.32,-2.274 -14.62,-10.645 l 0,-71.539 c 0,-2.367 -1.74,-4.562 -4.31,-4.582 l -11.89,0 0,0" />
        <path
           inkscape:connector-curvature="0"
           id="path3389"
           style="fill:#00674c;fill-opacity:1;fill-rule:nonzero;stroke:none"
           d="m 1278.72,440.551 c -9.97,-0.02 -17.9,-3.328 -23.46,-9.981 l 0,0 c -5.95,-6.914 -8.04,-13.914 -8.1,-28.632 l 0,0 c 0.16,-22.938 11.59,-35.805 31.37,-35.918 l 0,0 c 3.86,0 7.77,0.593 11.01,1.582 l 0,0 c 6.62,2.382 7.84,3.937 8.03,9.464 l 0,51.817 c -0.08,4.726 -0.9,6.281 -3.72,8.187 l 0,0 c -3.66,2.262 -9.04,3.481 -15.08,3.481 l 0,0 c -0.02,0 -0.04,0 -0.04,0 l -0.01,0 z m -40.74,-77.172 c -8.72,9.457 -13.55,22.953 -13.55,39.18 l 0,0 c 0.06,32.3 20.79,55.316 50.05,55.371 l 0,0 c 7.3,-0.024 14.9,-1.637 19.63,-4.793 l 0,0 1.91,-1.375 c 1.01,-0.586 1.14,-0.653 1.55,-0.672 l 0,41.539 c 0.06,2.5 2.01,4.535 4.53,4.582 l 12.69,0 c 2.67,0 4.51,-2.227 4.53,-4.582 l 0,-137.758 c -0.04,-2.504 -2.03,-4.547 -4.53,-4.594 l -10.47,0 c -2.54,0.012 -4.54,2.051 -4.71,4.641 l 0,0 c -0.69,-0.098 -1.31,-0.324 -2.14,-0.793 l 0,0 -1.73,-0.805 c -6.33,-3.207 -13.62,-4.683 -21.44,-4.683 l 0,0 c -15.07,-0.008 -27.63,5.285 -36.32,14.742 l 0,0" />
        <path
           inkscape:connector-curvature="0"
           id="path3391"
           style="fill:#00674c;fill-opacity:1;fill-rule:nonzero;stroke:none"
           d="m 1350.73,396.746 c -7.87,4.52 -11.13,6.93 -14.42,10.531 l 0,0 c -4.75,4.844 -7.09,11.469 -7.08,19.555 l 0,0 c -0.01,9.488 3.33,17.367 9.41,22.789 l 0,0 c 6.1,5.402 14.79,8.309 25.34,8.309 l 0,0 c 7.85,0.011 14.16,-1.5 21.59,-4.653 l 0,0 c 3.9,-1.543 5.72,-3.437 5.49,-6.504 l 0,-9.457 c -0.02,-2.16 -1.22,-4.578 -3.73,-4.586 l 0,0 c -1.48,0.008 -2.62,0.661 -4.18,1.657 l 0,0 c -8.2,4.859 -12.34,6.125 -19.37,6.152 l 0,0 c -8.9,-0.203 -12.68,-3.406 -12.82,-10.426 l 0,0 c 0.01,-3.32 1.25,-6.164 3.54,-8.144 l 0,0 c 1.62,-1.496 4.18,-3.106 9.21,-5.989 l 0,0 7.66,-4.515 c 8.48,-4.957 12.37,-7.973 15.55,-12.106 l 0,0 c 3.86,-5.062 6.14,-12.293 6.14,-19.207 l 0,0 c 0,-9.511 -3.53,-17.5 -9.88,-23.007 l 0,0 c -6.32,-5.5 -15.31,-8.508 -26.07,-8.508 l 0,0 c -8.43,0 -15.91,1.484 -23.96,4.64 l 0,0 c -4.32,1.504 -6.21,3.524 -5.94,6.918 l 0,8.852 c 0.02,1.219 0.22,2.34 0.89,3.281 l 0,0 c 0.66,0.957 1.84,1.539 3.04,1.516 l 0,0 c 1.22,0.035 2.41,-0.41 3.58,-1.262 l 0,0 c 7.68,-4.617 14.42,-6.562 21.38,-6.562 l 0,0 c 10.09,0.148 15.15,4.367 15.24,11.668 l 0,0 c -0.04,5.179 -2.53,8.859 -8.3,12.058 l 0,0 -5.85,3.285 -6.46,3.715" />
        <path
           inkscape:connector-curvature="0"
           id="path3393"
           style="fill:#00674c;fill-opacity:1;fill-rule:nonzero;stroke:none"
           d="m 645.145,259.434 35.011,0 -17.5,55.254 -17.511,-55.254 0,0 z m 55.175,-63.223 -14.976,47.285 -45.578,0 -15.188,-47.285 0,0 c -0.476,-1.758 -1.98,-2.656 -3.418,-2.676 l -11.914,0 c -1.141,0 -2.137,0.137 -3.047,0.781 l 0,0 c -0.918,0.664 -1.289,1.805 -1.25,2.774 l 0,0 c 0,0.41 0,0.41 0,0.625 l 0,0.273 0.09,0.254 0.789,1.992 43.137,124.84 1.387,3.871 c 1.203,4.602 4.152,6.664 9.492,6.383 l 8.437,0 c 3.614,0 5.535,-0.187 7.215,-1.594 l 0,-0.007 c 1.992,-1.399 3.012,-4.254 4.492,-8.477 l 0,0 41.723,-124.82 0.523,-1.7 c 0.493,-0.781 0.317,-1.308 0.371,-1.64 l 0,0 c 0.04,-1.152 -0.652,-2.344 -1.628,-2.871 l 0,0 c -0.977,-0.528 -2.039,-0.684 -3.289,-0.684 l -13.723,0 c -0.039,0 -0.059,0 -0.059,0 l -0.011,0 c -1.629,0 -3.016,1.153 -3.575,2.676 l 0,0" />
        <path
           inkscape:connector-curvature="0"
           id="path3395"
           style="fill:#00674c;fill-opacity:1;fill-rule:nonzero;stroke:none"
           d="m 790.754,279.551 c -3.645,2.637 -9.609,4.258 -16.445,4.238 l 0,0 c -19.746,-0.117 -30.793,-12.93 -30.957,-36.738 l 0,0 c 0.125,-22.305 11.875,-36.055 30.554,-36.133 l 0,0 c 5.774,0 12.071,1.594 16.223,3.73 l 0,0 c 3.086,1.836 3.504,2.579 3.641,6.485 l 0,52.226 c -0.165,4.082 -0.184,4.082 -2.977,6.172 l 0,0 m -58.789,-122.48 c -4.375,1.621 -6.516,3.722 -6.352,7.129 l 0,8.633 c 0.012,2.46 1.438,5 4.133,5 l 0,0 c 1.301,-0.02 2.371,-0.547 3.34,-0.997 l 0,0 2.59,-1.425 c 7.762,-4.188 19.746,-7.051 29.519,-7.032 l 0,0 c 9.051,-0.019 17.063,2.032 22.11,5.481 l 0,0 c 4.304,3.144 6.386,7.996 6.426,17.898 l 0,8.086 c -0.274,-0.125 -0.645,-0.312 -1.29,-0.594 l 0,0 c -7.609,-3.996 -14.726,-5.695 -22.414,-5.695 l 0,0 c -14.753,-0.019 -27.195,5.293 -35.867,14.61 l 0,0 c -8.679,9.316 -13.586,22.558 -13.586,38.293 l 0,0 c 0,16.062 5.254,29.765 14.399,39.441 l 0,0 c 9.129,9.707 22.097,15.312 37.285,15.312 l 0,0 c 6.211,0 12.027,-1.054 16.797,-3.066 l 0,0 c 1.258,-0.633 3.125,-1.68 5.242,-3.066 l 0,0 c 0.891,-0.438 1.086,-0.567 1.465,-0.625 l 0,0.117 c 0,1.426 0.254,2.676 1.125,3.672 l 0,0 c 0.855,0.976 2.129,1.328 3.367,1.328 l 10.684,0 c 2.675,0 4.511,-2.227 4.531,-4.59 l 0,-102.207 c 0,-13.457 -4.348,-24.043 -12.781,-31.152 l 0,0 c -8.457,-7.09 -20.735,-10.625 -36.489,-10.625 l 0,0 c -11.675,0 -25.078,2.265 -34.234,6.074 l 0,0" />
        <path
           inkscape:connector-curvature="0"
           id="path3397"
           style="fill:#00674c;fill-opacity:1;fill-rule:nonzero;stroke:none"
           d="m 898.352,260.254 c 0,0.234 0,0.43 0,0.566 l 0,0 c -0.071,13.848 -9.465,23.086 -23.86,23.184 l 0,0 c -13.652,-0.039 -23.574,-9.649 -24.441,-23.75 l 48.301,0 0,0 z m -56.606,-53.828 c -8.738,9.347 -13.516,22.773 -13.516,38.984 l 0,0 c 0,16.906 4.446,30.84 12.598,40.586 l 0,0 c 8.164,9.766 20.07,15.215 34.426,15.195 l 0,0 c 13.445,0 24.758,-4.785 32.598,-13.261 l 0,0 c 7.863,-8.465 12.246,-20.528 12.246,-34.903 l 0,-5.566 c 0,-2.363 -1.844,-4.59 -4.524,-4.59 l -65.601,0 c 0.203,-20.391 12.468,-33.516 31.343,-33.594 l 0,0 c 6.672,-0.019 15.793,2.774 23.711,7.442 l 0,0 1.368,0.683 c 1.293,0.918 2.636,1.094 3.554,1.114 l 0,0 c 2.578,0 4.321,-2.313 4.321,-4.786 l 0,-8.015 c 0.242,-3.488 -1.477,-5.754 -5.317,-7.102 l 0,0 c -8.902,-4.218 -20.34,-6.718 -30.652,-6.718 l 0,0 c -15.242,-0.008 -27.852,5.195 -36.555,14.531 l 0,0" />
        <path
           inkscape:connector-curvature="0"
           id="path3399"
           style="fill:#00674c;fill-opacity:1;fill-rule:nonzero;stroke:none"
           d="m 952.051,294.395 c 1.535,0.019 2.429,0.285 5.312,1.543 l 0,0 c 2.617,1.015 3.946,1.64 4.844,1.855 l 0,0 c 6.199,2.324 12.461,3.391 19.07,3.391 l 0,0 c 11.172,0.007 20.483,-3.45 26.933,-9.836 l 0,0 c 6.49,-6.387 10.02,-15.606 10.02,-26.817 l 0,-66.426 c -0.03,-2.48 -1.98,-4.531 -4.49,-4.57 l -12.91,0 0,0 c -2.51,0.039 -4.482,2.07 -4.521,4.57 l 0,63.536 c -0.246,15.566 -6.485,21.914 -21.668,22.148 l 0,0 c -4.895,0.02 -9.77,-0.781 -13.789,-2.363 l 0,0 c -5.532,-2.305 -6.75,-4.141 -6.887,-9.082 l 0,-74.239 c -0.047,-2.5 -2.024,-4.511 -4.524,-4.57 l -12.695,0 c -2.516,0.039 -4.488,2.07 -4.519,4.57 l 0,96.856 c 0.031,2.5 2.003,4.543 4.519,4.59 l 9.875,0 c 1.707,-0.028 3.086,-0.156 4.192,-1.231 l 0,0 c 1.035,-1.121 1.101,-2.441 1.128,-3.925 l 0.11,0" />
        <path
           inkscape:connector-curvature="0"
           id="path3401"
           style="fill:#00674c;fill-opacity:1;fill-rule:nonzero;stroke:none"
           d="m 1111.68,217.09 c 2.55,-0.059 4.1,-2.481 4.1,-5.195 l 0,-8.243 c 0.16,-2.656 -1.1,-4.832 -3.44,-5.839 l 0,0 c -7.21,-3.672 -18.98,-5.907 -29.69,-5.918 l 0,0 c -16.13,-0.008 -29.17,4.992 -38.13,14.394 l 0,0 c -8.97,9.375 -13.75,23.02 -13.75,39.941 l 0,0 c 0,16.848 5.15,30.645 14.62,40.196 l 0,0 c 9.47,9.551 23.15,14.765 39.88,14.765 l 0,0 c 8.86,0 17.73,-1.679 25.9,-5.234 l 0,0 c 2.95,-0.898 4.76,-2.891 4.61,-5.312 l 0,-9.668 c 0,-2.442 -1.41,-4.981 -4.1,-4.981 l 0,0 c -1.33,-0.027 -2.28,0.43 -3.96,1.426 l 0,0 c -8.34,4.629 -14.61,6.367 -22.85,6.367 l 0,0 c -20.18,-0.117 -31.18,-12.715 -31.35,-36.738 l 0,0 c 0.17,-24.434 11.62,-37.656 31.75,-37.774 l 0,0 c 7.17,0 14.58,1.973 21.8,6.055 l 0,0 0.85,0.344 c 1.3,0.859 2.47,1.394 3.76,1.414 l 0,0" />
        <path
           inkscape:connector-curvature="0"
           id="path3403"
           style="fill:#00674c;fill-opacity:1;fill-rule:nonzero;stroke:none"
           d="m 1196.7,294.602 c 0.88,3.367 3.37,5.164 6.46,4.949 l 8.47,0 c 1.51,-0.02 2.75,-0.137 3.86,-0.692 l 0,0 c 1.11,-0.48 1.95,-1.828 1.86,-3.078 l 0,0 c 0.01,-1.113 -0.31,-2.031 -0.89,-3.379 l 0,0 -33.24,-92.929 -4.24,-12.149 c -3.85,-10.554 -8.29,-20.859 -11.77,-27.344 l 0,0 c -3.85,-7.187 -9.02,-10.652 -16.55,-10.652 l 0,0 c -0.08,0 -0.2,0 -0.3,0 l -1.82,0 c -1.88,0.008 -3.37,0.145 -4.61,1.152 l 0,0 c -1.25,1.063 -1.51,2.598 -1.51,4.247 l 0,7.597 c 0,3.086 1.42,6.016 4.53,6.028 l 1.81,0 c 1.55,0.105 1.88,0.261 3.15,2.39 l 0,0 c 1.95,3.145 4.12,7.813 6.15,13.496 l 0,0 4.4,12.012 -38.24,95.234 c -0.8,1.817 -1.14,2.735 -1.14,3.887 l 0,0 c -0.05,1.289 0.62,2.625 1.71,3.281 l 0,0 c 1.09,0.684 2.37,0.879 3.82,0.899 l 11.08,0 c 3.5,0.137 6.22,-1.555 7.24,-4.68 l 0,0 27.1,-71.453 22.67,71.172" />
        <path
           inkscape:connector-curvature="0"
           id="path3405"
           style="fill:#62b92c;fill-opacity:1;fill-rule:nonzero;stroke:none"
           d="m 129.668,252.148 -0.457,275.977 c 0,11.031 6.492,19.996 14.566,20.055 7.383,0 13.45,-7.442 14.504,-17.125 l 0.293,-223.516 c 0.059,-11.074 6.602,-20.027 14.61,-20.027 7.785,-0.012 14.082,8.269 14.582,18.679 l 0,0.274 c 0,0.363 0.039,0.742 0.039,1.133 l -0.332,221.679 c 0.347,10.563 6.707,18.969 14.492,18.989 6.656,-0.02 12.293,-6.164 14.058,-14.563 l -0.105,46.152 -0.188,0 c -0.125,43.422 27.051,93.86 65.286,114.516 C 211.438,695.836 141.328,671.051 86.6523,619.566 -24.1523,515.246 -29.375,340.93 74.9102,230.098 c 26.8668,-28.555 58.4568,-50.059 92.4528,-64.512 -19.472,22.004 -30.476,48.379 -36.172,72.344 -0.656,2.793 -1.523,10.976 -1.523,14.218" />
        <path
           inkscape:connector-curvature="0"
           id="path3407"
           style="fill:#bde19a;fill-opacity:1;fill-rule:nonzero;stroke:none"
           d="m 419.727,583.789 0.468,-275.957 c 0.02,-11.074 -6.535,-20.019 -14.558,-20.027 -7.367,-0.012 -13.403,7.429 -14.465,17.097 l -0.352,223.512 c -0.039,11.09 -6.601,20 -14.648,20.066 -7.727,-0.066 -14.043,-8.363 -14.531,-18.781 l 0,-0.191 c 0,-0.387 -0.039,-0.778 0,-1.117 l 0.312,-221.75 c -0.39,-10.567 -6.758,-18.938 -14.531,-18.965 -6.692,-0.02 -12.293,6.172 -14.07,14.551 l 0.3,-45.653 0.086,-0.461 c 0.032,-42.031 -25.386,-90.703 -61.758,-112.558 68.938,-0.86 138.215,23.886 192.422,74.883 110.735,104.312 115.942,278.652 11.672,389.453 -28.386,30.089 -61.965,52.398 -98.047,66.836 21.641,-22.329 36.707,-53.891 40.227,-82.071 0.918,-2.64 1.473,-5.629 1.473,-8.867" />
        <path
           inkscape:connector-curvature="0"
           id="path3409"
           style="fill:#00674c;fill-opacity:1;fill-rule:nonzero;stroke:none"
           d="M 281.016,694.371 C 242.781,673.715 215.605,623.277 215.652,579.828 l 0.11,-0.203 0.261,-45.922 0,0 0.364,-226.105 c 0.039,-11.055 6.609,-20.02 14.648,-19.981 5.742,0 10.653,4.571 13.008,11.192 0.105,0.078 0.129,0.156 0.129,0.254 0.293,0.898 0.594,1.875 0.789,2.89 0,0.274 0.129,0.508 0.184,0.781 0.136,0.86 0.207,1.739 0.304,2.637 0.031,0.742 0.156,1.445 0.137,2.168 l -0.156,217.621 0.05,4.363 c 0.333,7.629 3.868,14.071 8.68,16.997 0.149,0.062 0.235,0.175 0.313,0.238 0.183,0.062 0.261,0.094 0.422,0.18 1.589,0.898 3.418,1.378 5.281,1.406 6.875,0 12.637,-6.571 14.238,-15.375 l 0.156,-1.129 c 0.137,-1.141 0.008,-2.43 0.098,-3.613 l 0.352,-224.036 c 1.191,-9.347 7.175,-16.535 14.367,-16.476 1.851,-0.012 3.621,0.527 5.261,1.367 0.079,0 0.176,0 0.223,0.02 0.149,0.136 0.227,0.273 0.422,0.39 5.027,3.117 8.508,10.11 8.508,18.156 l -0.09,218.993 0.129,3.004 c 0,0.296 0.074,0.64 0.113,0.937 0.031,0.879 0.168,1.785 0.324,2.606 0.032,0.269 0.118,0.515 0.149,0.789 0.203,0.988 0.469,2.015 0.777,2.961 l 0.102,0.207 c 2.332,6.703 7.293,11.316 13.062,11.277 8.071,0.039 14.621,-8.957 14.621,-20.008 l 0.364,-226.207 c 1.777,-8.359 7.378,-14.504 14.07,-14.531 7.773,0.027 14.141,8.398 14.531,18.965 l -0.312,221.714 c -0.039,0.375 0,0.766 0,1.153 l 0,0.191 c 0.488,10.453 6.804,18.715 14.531,18.781 8.047,-0.066 14.609,-8.976 14.648,-20.066 l 0.352,-223.512 c 1.062,-9.668 7.098,-17.129 14.465,-17.097 8.023,0.008 14.558,8.953 14.558,20.027 l -0.468,275.981 c 0,3.214 -0.247,6.515 -0.664,9.617 -4.239,28.093 -19.395,58.988 -41.036,81.297 -31.035,12.402 -63.964,19.027 -97.011,19.644" />
        <path
           inkscape:connector-curvature="0"
           id="path3411"
           style="fill:#ffffff;fill-opacity:1;fill-rule:nonzero;stroke:none"
           d="m 271.98,143.555 c 38.223,20.644 61.86,69.394 61.821,112.851 l -0.11,0.207 -0.261,45.907 0,0 -0.344,226.113 c -0.059,11.051 -6.633,20.031 -14.656,19.976 -5.754,0 -10.657,-4.55 -13.02,-11.187 -0.105,-0.074 -0.117,-0.16 -0.117,-0.25 -0.305,-0.906 -0.574,-1.879 -0.789,-2.883 0,-0.289 -0.109,-0.523 -0.188,-0.797 -0.144,-0.851 -0.195,-1.722 -0.293,-2.648 -0.039,-0.731 -0.175,-1.434 -0.136,-2.168 l 0.176,-217.602 -0.079,-4.375 c -0.324,-7.617 -3.886,-14.07 -8.671,-16.98 -0.168,-0.071 -0.254,-0.188 -0.333,-0.266 -0.183,-0.039 -0.273,-0.078 -0.417,-0.176 -1.594,-0.879 -3.411,-1.367 -5.278,-1.406 -6.863,0 -12.652,6.582 -14.234,15.391 l -0.156,1.113 c -0.129,1.172 -0.024,2.441 -0.082,3.613 l -0.379,224.043 c -1.18,9.371 -7.176,16.539 -14.356,16.485 -1.863,0.011 -3.625,-0.52 -5.265,-1.383 -0.086,0 -0.165,0 -0.211,-0.02 -0.168,-0.125 -0.266,-0.261 -0.43,-0.371 -5.031,-3.137 -8.52,-10.105 -8.52,-18.152 l 0.09,-219.012 -0.129,-2.996 c 0,-0.293 -0.066,-0.644 -0.105,-0.937 -0.028,-0.899 -0.156,-1.778 -0.332,-2.598 -0.012,-0.274 -0.086,-0.527 -0.149,-0.801 -0.172,-0.976 -0.457,-2 -0.781,-2.949 l -0.086,-0.195 c -2.363,-6.719 -7.305,-11.329 -13.066,-11.309 -8.074,-0.02 -14.61,8.965 -14.61,20.02 l -0.398,226.222 c -1.75,8.352 -7.363,14.492 -14.047,14.524 -7.781,-0.032 -14.148,-8.407 -14.519,-18.965 l 0.3,-221.723 c 0.051,-0.379 0,-0.762 0,-1.141 l 0,-0.187 c -0.496,-10.469 -6.824,-18.738 -14.519,-18.777 -8.035,0.039 -14.629,8.972 -14.656,20.047 l -0.344,223.519 c -1.082,9.648 -7.117,17.129 -14.461,17.082 -8.027,0 -14.594,-8.949 -14.594,-20.016 l 0.481,-275.996 c 0,-3.203 0.253,-6.504 0.695,-9.617 4.207,-28.078 15.308,-54.894 36.941,-77.199 31.035,-12.402 71.575,-21.426 104.617,-22.031" />
        <path
           inkscape:connector-curvature="0"
           id="path3413"
           style="fill:#62b92c;fill-opacity:1;fill-rule:nonzero;stroke:none"
           d="m 634.57,33.1836 c 0,-1.1914 -1.047,-2.2266 -2.226,-2.2266 l -9.422,0 c -1.203,0 -2.258,1.0352 -2.258,2.2266 l 0,62.2266 -9.726,0 c -1.18,0 -2.227,1.0351 -2.227,2.2382 l 0,5.9846 c 0,1.191 1.047,2.226 2.227,2.226 l 9.726,0 0,8.536 c 0,8.828 1.809,13.613 6.57,17.343 4.055,3.301 9.59,5.09 15.11,5.09 6.14,0 10.019,-1.496 10.019,-4.043 l 0,-6.125 c 0,-1.347 -0.586,-2.246 -1.496,-2.246 -0.445,0 -1.031,0.156 -1.621,0.449 l -1.355,0.606 c -1.043,0.429 -2.852,0.89 -4.344,0.89 -6.125,0 -8.977,-3.449 -8.977,-11.066 l 0.157,-9.434 14.519,0 c 1.176,0 2.231,-1.035 2.231,-2.226 l 0,-6.2892 c 0,-1.3477 -0.754,-1.9336 -2.231,-1.9336 l -14.676,0 0,-62.2266" />
        <path
           inkscape:connector-curvature="0"
           id="path3415"
           style="fill:#62b92c;fill-opacity:1;fill-rule:nonzero;stroke:none"
           d="m 674.387,45.1563 c 3.281,-4.043 8.816,-6.2696 15.398,-6.2696 14.207,0 21.231,9.5508 21.231,29.0039 0,19.4336 -7.024,28.8555 -21.387,28.8555 -14.336,0 -21.223,-9.2656 -21.223,-29.1484 0,-11.0743 1.653,-17.2266 5.981,-22.4414 z m 15.242,61.9067 c 22.598,0 36.055,-14.6411 36.055,-39.1724 0,-24.375 -13.621,-39.4726 -35.618,-39.4726 -22.421,0 -36.328,15.0976 -36.328,39.3164 0,24.375 13.617,39.3286 35.891,39.3286" />
        <path
           inkscape:connector-curvature="0"
           id="path3417"
           style="fill:#62b92c;fill-opacity:1;fill-rule:nonzero;stroke:none"
           d="m 754.348,45.1563 c 3.281,-4.043 8.816,-6.2696 15.418,-6.2696 14.187,0 21.218,9.5508 21.218,29.0039 0,19.4336 -7.031,28.8555 -21.382,28.8555 -14.36,0 -21.243,-9.2656 -21.243,-29.1484 0,-11.0743 1.653,-17.2266 5.989,-22.4414 z m 15.254,61.9067 c 22.578,0 36.043,-14.6411 36.043,-39.1724 0,-24.375 -13.614,-39.4726 -35.606,-39.4726 -22.422,0 -36.328,15.0976 -36.328,39.3164 0,24.375 13.613,39.3286 35.891,39.3286" />
        <path
           inkscape:connector-curvature="0"
           id="path3419"
           style="fill:#62b92c;fill-opacity:1;fill-rule:nonzero;stroke:none"
           d="m 864.656,93.9063 c -2.984,1.7968 -7.156,2.6953 -11.804,2.6953 -7.618,0 -13.899,-2.5391 -18.243,-7.6368 -4.636,-5.2148 -6.289,-10.7617 -6.289,-21.5234 0,-17.0703 9.129,-27.2266 24.383,-27.2266 2.988,0 5.981,0.4688 8.52,1.211 5.093,1.6406 6.746,3.5742 6.746,7.9297 l 0,37.6758 c 0,3.5937 -0.906,5.3906 -3.313,6.875 z m 4.629,-59.5118 c -1.031,0 -1.914,-0.1562 -2.969,-0.7617 l -1.355,-0.5859 c -4.5,-2.2461 -9.719,-3.2813 -15.398,-3.2813 -21.836,0 -35.891,14.961 -35.891,38.125 0,23.0274 14.949,39.1724 36.035,39.1724 5.234,0 10.754,-1.204 13.906,-3.293 l 1.485,-1.036 c 1.074,-0.605 1.355,-0.75 2.57,-0.605 l 0.301,0 0,31.25 c 0,1.211 1.023,2.246 2.226,2.246 l 9.422,0 c 1.34,0 2.238,-1.035 2.238,-2.246 l 0,-100.1954 c 0,-1.1914 -1.035,-2.2266 -2.238,-2.2266 l -7.769,0 c -1.34,0 -2.395,1.0352 -2.395,2.5391 l 0,0.8984 -0.168,0" />
        <path
           inkscape:connector-curvature="0"
           id="path3421"
           style="fill:#62b92c;fill-opacity:1;fill-rule:nonzero;stroke:none"
           d="m 907.07,50.0977 c 7.473,0 10.586,-3.1446 10.586,-10.4688 0,-6.875 -3.261,-9.8633 -10.91,-9.8633 -7.312,0 -10.457,3.125 -10.457,10.3125 0,6.875 3.445,10.0196 10.781,10.0196" />
        <path
           inkscape:connector-curvature="0"
           id="path3423"
           style="fill:#62b92c;fill-opacity:1;fill-rule:nonzero;stroke:none"
           d="m 975.273,93.3008 c -2.988,2.1094 -7.636,3.3008 -12.871,3.3008 -15.246,0 -24.062,-10.1758 -24.062,-27.8321 0,-16.582 9.265,-27.3437 23.777,-27.3437 4.485,0 9.27,1.1914 12.571,2.832 2.519,1.3477 3.281,2.6953 3.281,5.6836 l 0,37.9883 c 0,2.9883 -0.457,3.8867 -2.696,5.3711 z m 0.149,-58.3203 c -5.527,-2.8321 -10.609,-4.0235 -16.152,-4.0235 -21.387,0 -35.579,14.961 -35.579,37.3828 0,22.8711 15.235,38.7232 37.215,38.7232 4.485,0 8.672,-0.735 11.977,-2.09 0.887,-0.442 2.254,-1.203 3.887,-2.239 0.886,-0.449 1.199,-0.605 2.078,-0.605 l 0.617,0.156 0,1.043 c 0,1.789 0.738,2.531 2.234,2.531 l 7.93,0 c 1.348,0 2.234,-1.035 2.234,-2.226 l 0,-74.3166 C 991.863,10.1758 979.465,0 956.426,0 c -8.528,0 -18.399,1.64063 -24.981,4.33594 -3.281,1.34765 -4.043,2.08984 -4.043,4.17969 l 0,6.28907 c 0,1.4844 0.762,2.5391 1.973,2.5391 0.574,0 1.328,-0.293 1.926,-0.586 l 1.953,-1.0547 c 5.984,-3.1445 14.949,-5.2343 22.43,-5.2343 6.882,0 13.007,1.5039 17.043,4.1796 3.582,2.5586 5.242,6.5821 5.242,13.9063 l 0,7.168 c -1.055,0 -1.199,-0.1368 -2.547,-0.7422" />
        <path
           inkscape:connector-curvature="0"
           id="path3425"
           style="fill:#62b92c;fill-opacity:1;fill-rule:nonzero;stroke:none"
           d="m 1024.01,45.1563 c 3.3,-4.043 8.82,-6.2696 15.39,-6.2696 14.23,0 21.25,9.5508 21.25,29.0039 0,19.4336 -7.02,28.8555 -21.38,28.8555 -14.36,0 -21.25,-9.2656 -21.25,-29.1484 0,-11.0743 1.66,-17.2266 5.99,-22.4414 z m 15.26,61.9067 c 22.58,0 36.03,-14.6411 36.03,-39.1724 0,-24.375 -13.61,-39.4726 -35.58,-39.4726 -22.43,0 -36.34,15.0976 -36.34,39.3164 0,24.375 13.59,39.3286 35.89,39.3286" />
        <path
           inkscape:connector-curvature="0"
           id="path3427"
           style="fill:#62b92c;fill-opacity:1;fill-rule:nonzero;stroke:none"
           d="m 1133.24,104.375 c 0.3,0.898 1.19,1.484 2.24,1.484 l 7.64,0 c 1.64,0 2.68,-0.586 2.68,-1.933 0,-0.293 -0.32,-1.055 -0.59,-2.09 l -22.74,-65.0391 c -0.6,-1.6602 -1.33,-3.75 -1.8,-4.8047 -1.03,-1.7969 -2.09,-2.2266 -5.51,-2.2266 l -6.29,0 c -4.18,0 -5.24,0.7422 -6.58,4.4727 l -0.74,2.2461 -22.89,65.3516 c -0.31,0.742 -0.47,1.34 -0.47,1.934 0,1.503 1.08,2.089 3.46,2.089 l 9.42,0 c 1.05,0 1.8,-0.586 2.09,-1.484 l 20.03,-61.0156 20.05,61.0156" />
        <path
           inkscape:connector-curvature="0"
           id="path3429"
           style="fill:#62b92c;fill-opacity:1;fill-rule:nonzero;stroke:none"
           d="m 1154.39,50.0977 c 7.49,0 10.61,-3.1446 10.61,-10.4688 0,-6.875 -3.29,-9.8633 -10.91,-9.8633 -7.34,0 -10.48,3.125 -10.48,10.3125 0,6.875 3.44,10.0196 10.78,10.0196" />
        <path
           inkscape:connector-curvature="0"
           id="path3431"
           style="fill:#62b92c;fill-opacity:1;fill-rule:nonzero;stroke:none"
           d="m 1221.37,33.7891 -4.34,-1.6407 c -4.92,-1.7968 -8.97,-2.3828 -14.34,-2.3828 -16.17,0 -25.89,8.6524 -25.89,23.3203 l 0,50.5471 c 0,1.191 1.05,2.226 2.25,2.226 l 9.55,0 c 1.22,0 2.26,-1.035 2.26,-2.226 l 0,-46.2111 c 0,-6.8946 1.49,-11.3672 4.79,-13.6133 3.16,-2.3828 7.48,-3.5938 12.27,-3.5938 2.83,0 6.11,0.4688 9.4,1.3477 5.39,1.5039 7.05,3.3008 7.05,7.3242 l 0,54.7463 c 0,1.191 1.02,2.226 2.24,2.226 l 9.56,0 c 1.18,0 2.25,-1.035 2.25,-2.226 l 0,-70.4494 c 0,-1.1914 -1.07,-2.2266 -2.25,-2.2266 l -8.06,0 c -1.35,0 -2.26,0.8985 -2.26,2.3828 l 0,1.211 c -1.8,0 -2.7,-0.1563 -4.48,-0.7617" />
        <path
           inkscape:connector-curvature="0"
           id="path3433"
           style="fill:#62b92c;fill-opacity:1;fill-rule:nonzero;stroke:none"
           d="m 1270.52,76.25 c 0.45,0 1.03,0.4492 1.66,0.8984 l 26.88,27.2266 c 1.21,1.348 1.5,1.484 2.99,1.484 l 8.84,0 c 1.49,0 2.4,-0.742 2.4,-1.785 0,-0.898 -0.45,-1.789 -1.49,-2.844 l -28.59,-28.4175 29.48,-37.2266 c 1.03,-1.1914 1.33,-1.9531 1.33,-2.6953 0,-1.3281 -0.89,-1.9336 -2.68,-1.9336 l -10.63,0 c -1.93,0 -2.83,0.4493 -4.17,2.3828 l -23.79,31.8555 c -0.88,1.3477 -1.2,1.4844 -2.37,1.4844 l -0.46,0 0,-33.4961 c 0,-1.1914 -0.91,-2.2266 -2.24,-2.2266 l -10.18,0 c -1.2,0 -2.24,1.0352 -2.24,2.2266 l 0,100.1954 c 0,1.211 1.04,2.246 2.24,2.246 l 10.18,0 c 1.33,0 2.24,-1.035 2.24,-2.246 l 0,-57.2657 0.6,0.1367" />
      </g>
    </g>
  </g>
</svg>
