<?xml version="1.0" standalone="no"?>
<!DOCTYPE svg PUBLIC "-//W3C//DTD SVG 20010904//EN"
 "http://www.w3.org/TR/2001/REC-SVG-20010904/DTD/svg10.dtd">
<svg version="1.0" xmlns="http://www.w3.org/2000/svg"
 width="16.000000pt" height="16.000000pt" viewBox="0 0 16.000000 16.000000"
 preserveAspectRatio="xMidYMid meet">
<metadata>
Created by potrace 1.11, written by Peter Selinger 2001-2013
</metadata>
<g transform="translate(0.000000,16.000000) scale(0.002286,-0.002286)"
fill="#000000" stroke="none">
<path d="M3278 6995 c-2 -2 -43 -6 -91 -10 -48 -3 -96 -8 -106 -10 -10 -2 -42
-6 -71 -10 -29 -4 -60 -8 -69 -10 -9 -1 -36 -6 -61 -10 -144 -22 -371 -84
-564 -152 -918 -325 -1669 -1042 -2051 -1958 -70 -168 -166 -475 -190 -610
-23 -133 -36 -211 -41 -247 -3 -24 -7 -54 -10 -68 -25 -152 -25 -677 1 -819 1
-9 6 -43 10 -76 4 -32 9 -68 11 -80 2 -11 6 -33 9 -50 3 -16 8 -41 10 -55 3
-14 7 -34 9 -45 2 -11 14 -60 25 -109 193 -809 691 -1545 1371 -2025 63 -45
120 -86 127 -91 7 -6 14 -10 17 -10 2 0 42 -23 88 -52 100 -62 345 -186 448
-226 176 -69 530 -173 670 -196 19 -3 46 -8 60 -11 30 -6 144 -25 185 -31 17
-2 48 -7 70 -10 195 -26 610 -25 795 2 167 25 306 51 422 80 144 36 400 120
471 154 22 11 44 20 49 20 14 0 257 120 344 170 48 28 91 50 95 50 5 0 9 5 9
10 0 6 4 10 10 10 15 0 212 135 324 222 153 120 325 281 456 428 36 40 70 78
75 84 27 29 177 229 222 296 324 488 515 1021 576 1615 13 126 16 576 4 655
-3 19 -8 60 -12 90 -7 61 -14 112 -21 150 -2 14 -7 41 -10 60 -29 183 -111
471 -196 685 -205 516 -569 1018 -993 1370 -33 28 -62 53 -65 56 -3 3 -57 44
-120 90 -400 294 -865 502 -1347 603 -98 21 -236 42 -393 62 -53 6 -546 14
-552 9z"/>
</g>
</svg>
