<?xml version="1.0" standalone="no"?>
<!DOCTYPE svg PUBLIC "-//W3C//DTD SVG 20010904//EN"
 "http://www.w3.org/TR/2001/REC-SVG-20010904/DTD/svg10.dtd">
<svg version="1.0" xmlns="http://www.w3.org/2000/svg"
 width="16.000000pt" height="16.000000pt" viewBox="0 0 16.000000 16.000000"
 preserveAspectRatio="xMidYMid meet">
<metadata>
Created by potrace 1.11, written by Peter Selinger 2001-2013
</metadata>
<g transform="translate(0.000000,16.000000) scale(0.011268,-0.011268)"
fill="#000000" stroke="none">
<path d="M540 1380 c-227 -60 -408 -229 -486 -455 -26 -72 -28 -93 -28 -215 0
-122 2 -143 28 -215 41 -120 80 -181 175 -275 74 -73 191 -156 191 -135 0 4
-10 20 -21 37 -12 16 -30 57 -40 90 -17 54 -19 97 -19 427 0 355 1 369 20 386
19 17 21 17 40 0 19 -17 20 -33 22 -323 3 -282 4 -306 21 -316 15 -9 21 -7 33
8 11 16 14 74 14 316 0 242 3 300 14 316 12 15 18 17 33 8 17 -10 18 -36 23
-320 3 -170 9 -315 13 -321 12 -19 45 -15 57 6 6 12 10 132 10 320 0 286 1
301 19 311 15 7 23 6 35 -6 14 -13 16 -56 16 -318 0 -265 2 -305 16 -317 11
-9 20 -10 32 -2 15 9 18 45 22 316 4 274 7 308 23 324 16 16 18 16 35 0 15
-16 18 -50 22 -330 l5 -312 24 -3 c13 -2 28 2 32 10 5 7 9 145 9 306 0 183 4
301 10 313 13 23 46 25 54 3 3 -9 6 -146 6 -305 0 -298 4 -329 39 -329 41 0
42 12 39 417 l-3 388 -32 66 c-39 78 -62 101 -128 124 -79 28 -279 31 -375 5z"/>
</g>
</svg>
